<svg width="51" height="70" viewBox="0 0 51 70" fill="none" xmlns="http://www.w3.org/2000/svg">
<path d="M29.2877 16.24V1.06482C29.2877 0.12258 28.148 -0.354709 27.4785 0.308375C19.7892 7.92481 6.52964 20.4207 3.28495 24.374C-1.11132 29.7303 -1.46504 40.0695 4.49771 46.8606C9.26791 52.2935 17.6102 52.9132 21.185 52.5439V41.1246C21.185 40.5419 20.7126 40.0695 20.1299 40.0695H7.59637C6.64458 40.0695 6.17933 38.9086 6.86768 38.2513L28.8524 17.2574C29.1304 16.992 29.2877 16.6243 29.2877 16.24Z" fill="#172554"/>
<path d="M21.1901 52.8342V68.0094C21.1901 68.9516 22.3298 69.4289 22.9992 68.7658C30.6885 61.1494 43.9481 48.6535 47.1928 44.7002C51.5891 39.3438 51.9428 29.0047 45.98 22.2136C41.2098 16.7807 32.8676 16.161 29.2928 16.5302V27.9496C29.2928 28.5323 29.7651 29.0047 30.3479 29.0047H42.8814C43.8332 29.0047 44.2984 30.1656 43.6101 30.8229L21.6253 51.8168C21.3474 52.0822 21.1901 52.4498 21.1901 52.8342Z" fill="#172554"/>
</svg>
